<?xml version="1.0" encoding="utf-8"?>
<!-- Generator: Adobe Illustrator 25.0.0, SVG Export Plug-In . SVG Version: 6.00 Build 0)  -->
<svg version="1.1" id="Layer_1" xmlns="http://www.w3.org/2000/svg" xmlns:xlink="http://www.w3.org/1999/xlink" x="0px" y="0px"
	 viewBox="0 0 800 800" style="enable-background:new 0 0 800 800;" xml:space="preserve">
<path d="M397.9,0.5c-33.5,0.1-66.8,4.3-99.2,12.6C142.7,52,18.9,193.2,3,353.5C-16.7,505,60,663,191.1,741.2
	c128.8,80.6,303.1,77.4,429.2-7.4C733.6,660.3,804,526.3,799.9,391C798,257.1,722.8,127,607.8,58.3C545.2,19.6,471.5,0.2,397.9,0.5
	L397.9,0.5z M395.7,57C560.5,56.8,722,184.2,738.5,354.6C770,543.2,613.4,735,422.2,740.6C240.5,758.7,64.7,604.5,59.5,422
	c-13.5-147.8,84-294.5,223.3-343.4C318.7,64.3,357,57,395.7,57.2L395.7,57z M565.5,164.6c-89.6,69.5-175.4,143.6-263,215.2
	c40.1,0.5,80.5,0.5,120.7,0.2C470.2,307.9,518.5,236.7,565.5,164.6L565.5,164.6z M376.7,419.7c-47,72.3-95.4,143.6-142.5,215.9
	c89.9-69.4,175.3-144,263.4-215.2C457.3,419.8,416.9,419.7,376.7,419.7L376.7,419.7z"/>
</svg>
