<?xml version="1.0" encoding="utf-8"?>
<!-- Generator: Adobe Illustrator 25.0.0, SVG Export Plug-In . SVG Version: 6.00 Build 0)  -->
<svg version="1.1" id="Layer_1" xmlns="http://www.w3.org/2000/svg" xmlns:xlink="http://www.w3.org/1999/xlink" x="0px" y="0px"
	 viewBox="0 0 512 512" style="enable-background:new 0 0 512 512;" xml:space="preserve">
<style type="text/css">
	.st0{fill:url(#SVGID_1_);}
	.st1{fill:url(#SVGID_2_);stroke:#FFFFFF;}
</style>
<linearGradient id="SVGID_1_" gradientUnits="userSpaceOnUse" x1="51.5529" y1="520.9208" x2="498.9538" y2="165.7739" gradientTransform="matrix(1 0 0 -1 0 618)">
	<stop  offset="0" style="stop-color:#9013FE"/>
	<stop  offset="1" style="stop-color:#6610F2"/>
</linearGradient>
<path class="st0" d="M56.5,108.7c-1-27.7,20.6-53.3,49.9-53.3h299.4c29.2,0,50.8,25.6,49.9,53.3c-0.9,26.6,0.3,61.2,9,89.3
	c8.7,28.2,23.4,46.1,47.5,48.4v26c-24.1,2.3-38.8,20.1-47.5,48.4c-8.7,28.1-9.9,62.7-9,89.3c1,27.7-20.6,53.3-49.9,53.3H106.3
	c-29.2,0-50.8-25.6-49.9-53.3c0.9-26.6-0.3-61.2-9-89.3c-8.7-28.2-23.4-46.1-47.5-48.4v-26c24.1-2.3,38.8-20.1,47.5-48.4
	C56.2,169.9,57.4,135.4,56.5,108.7z"/>
<linearGradient id="SVGID_2_" gradientUnits="userSpaceOnUse" x1="189.147" y1="450.2974" x2="289.153" y2="281.1654" gradientTransform="matrix(1 0 0 -1 0 618)">
	<stop  offset="0" style="stop-color:#FFFFFF"/>
	<stop  offset="1" style="stop-color:#F1E5FC"/>
</linearGradient>
<path class="st1" d="M267.1,367.8c47.3,0,75.8-23.2,75.8-61.4c0-28.9-20.3-49.8-50.5-53.1v-1.2C314.6,248.6,332,228,332,205
	c0-32.8-25.9-54.1-65.3-54.1h-88.7v217H267.1z M212.4,178.4h45.9c25,0,39.1,11.1,39.1,31.3c0,21.5-16.5,33.5-46.4,33.5h-38.7
	C212.4,243.2,212.4,178.4,212.4,178.4z M212.4,340.3v-71.4H258c32.7,0,49.6,12,49.6,35.5c0,23.5-16.5,35.9-47.6,35.9H212.4z"/>
</svg>
