<?xml version="1.0" encoding="utf-8"?>
<!-- Generator: Adobe Illustrator 25.0.0, SVG Export Plug-In . SVG Version: 6.00 Build 0)  -->
<svg version="1.1" id="Layer_1" xmlns="http://www.w3.org/2000/svg" xmlns:xlink="http://www.w3.org/1999/xlink" x="0px" y="0px"
	 viewBox="0 0 64 64" style="enable-background:new 0 0 64 64;" xml:space="preserve">
<path d="M64,49.6c-2.3,0.6-3.8,0-5.1-1.9L49.8,35l-1.3-1.8L37.7,47.7c-1.2,1.7-2.5,2.5-4.8,1.9l13.7-18.4L33.8,14.5
	c2.2-0.4,3.7-0.2,5.1,1.8l9.5,12.9L58,16.3c1.2-1.7,2.6-2.4,4.8-1.8l-5,6.6l-6.7,8.8c-0.8,1-0.7,1.7,0,2.7L64,49.6z M0,30.9l1.1-5.5
	c3.1-10.9,15.6-15.5,24.2-8.7c5.1,4,6.3,9.6,6.1,15.9H3c-0.4,11.3,7.7,18.2,18.1,14.7c3.6-1.2,5.8-4.1,6.9-7.7
	c0.5-1.8,1.5-2.1,3.1-1.6c-0.9,4.5-2.8,8.2-6.9,10.5C18.1,52,9.3,50.9,4.7,46C2,43.2,0.9,39.6,0.4,35.8C0.3,35.2,0.1,34.6,0,34
	C0,32.9,0,31.9,0,30.9L0,30.9z M3,30.1h25.7c-0.2-8.2-5.3-14-12.3-14.1C8.8,16,3.3,21.6,3,30.1z"/>
</svg>
