<?xml version="1.0" encoding="utf-8"?>
<!-- Generator: Adobe Illustrator 25.0.0, SVG Export Plug-In . SVG Version: 6.00 Build 0)  -->
<svg version="1.1" id="Layer_1" xmlns="http://www.w3.org/2000/svg" xmlns:xlink="http://www.w3.org/1999/xlink" x="0px" y="0px"
	 viewBox="0 0 800 800" style="enable-background:new 0 0 800 800;" xml:space="preserve">
<path d="M400,0C180,0,0,180.3,0,402.4C0,603.2,146.4,769.9,337.6,800V518.9H236V402.4h101.6v-88.8c0-100.8,59.6-156.2,151.2-156.2
	c43.6,0,89.2,7.6,89.2,7.6v99.2h-50.4c-49.6,0-65.2,30.9-65.2,62.7v75.5h111.2l-18,116.5h-93.2V800c94.3-14.9,180.1-63.2,242-136.1
	c61.9-72.9,95.8-165.6,95.6-261.4C800,180.3,620,0,400,0z"/>
</svg>
