<?xml version="1.0" encoding="utf-8"?>
<!-- Generator: Adobe Illustrator 25.0.0, SVG Export Plug-In . SVG Version: 6.00 Build 0)  -->
<svg version="1.1" id="Layer_1" xmlns="http://www.w3.org/2000/svg" xmlns:xlink="http://www.w3.org/1999/xlink" x="0px" y="0px"
	 viewBox="0 0 800 800" style="enable-background:new 0 0 800 800;" xml:space="preserve">
<style type="text/css">
	.st0{fill-rule:evenodd;clip-rule:evenodd;fill:#0F0F0F;}
	.st1{fill:#0F0F0F;}
</style>
<path class="st0" d="M400,618.2c120.5,0,218.2-97.7,218.2-218.2c0-120.5-97.7-218.2-218.2-218.2c-120.5,0-218.2,97.7-218.2,218.2
	C181.8,520.5,279.5,618.2,400,618.2z M400,545.5c80.3,0,145.5-65.1,145.5-145.5c0-80.3-65.1-145.5-145.5-145.5
	c-80.3,0-145.5,65.1-145.5,145.5C254.5,480.3,319.7,545.5,400,545.5z"/>
<path class="st1" d="M618.2,145.5c-20.1,0-36.4,16.3-36.4,36.4s16.3,36.4,36.4,36.4s36.4-16.3,36.4-36.4S638.3,145.5,618.2,145.5z"
	/>
<path class="st0" d="M23.8,119.1C0,165.8,0,226.9,0,349.1v101.8c0,122.2,0,183.3,23.8,230c20.9,41.1,54.3,74.4,95.3,95.3
	c46.7,23.8,107.8,23.8,230,23.8h101.8c122.2,0,183.3,0,230-23.8c41.1-20.9,74.4-54.3,95.3-95.3c23.8-46.7,23.8-107.8,23.8-230V349.1
	c0-122.2,0-183.3-23.8-230c-20.9-41.1-54.3-74.4-95.3-95.3C634.2,0,573.1,0,450.9,0H349.1c-122.2,0-183.3,0-230,23.8
	C78.1,44.7,44.7,78.1,23.8,119.1z M450.9,72.7H349.1c-62.3,0-104.6,0.1-137.4,2.7c-31.9,2.6-48.2,7.3-59.6,13.1
	c-27.4,13.9-49.6,36.2-63.6,63.6c-5.8,11.4-10.5,27.7-13.1,59.6c-2.7,32.7-2.7,75.1-2.7,137.4v101.8c0,62.3,0.1,104.6,2.7,137.4
	c2.6,31.9,7.3,48.2,13.1,59.6c13.9,27.4,36.2,49.6,63.6,63.6c11.4,5.8,27.7,10.5,59.6,13.1c32.7,2.7,75.1,2.7,137.4,2.7h101.8
	c62.3,0,104.6-0.1,137.4-2.7c31.9-2.6,48.2-7.3,59.6-13.1c27.4-13.9,49.6-36.2,63.6-63.6c5.8-11.4,10.5-27.7,13.1-59.6
	c2.7-32.7,2.7-75.1,2.7-137.4V349.1c0-62.3-0.1-104.6-2.7-137.4c-2.6-31.9-7.3-48.2-13.1-59.6c-13.9-27.4-36.2-49.6-63.6-63.6
	c-11.4-5.8-27.7-10.5-59.6-13.1C555.6,72.8,513.2,72.7,450.9,72.7z"/>
</svg>
